#!OML:ASF E:\motion texture\Top Level 1\Subject 1\Session 1\male.ASF
:FULLY-SPECIFIED
:DEGREES
653
root -34.2152 17.8351 2.58404 380.504 -85.3481 -374.062
lowerback 1.85375 -1.36144 2.9569
upperback 1.48125 -1.90628 4.92142
thorax 0.55791 -1.00439 3.43072
lowerneck -18.7101 -0.173952 -3.7811
upperneck 13.4513 0.517469 1.39983
head 7.17467 0.179137 1.13066
rclavicle -2.98177e-015 3.49861e-014
rhumerus -55.0709 -43.6643 -41.7773
rradius 49.013
rwrist -33.0407
rhand -19.2982 -63.0333
rfingers 7.12502
rthumb 7.01727 -627.103
lclavicle -2.98177e-015 3.49861e-014
lhumerus -28.6655 2.33206 88.797
lradius 52.9759
lwrist -8.66276
lhand -12.8753 33.5718
lfingers 7.12502
lthumb 13.2134 63.1331
rfemur -26.8713 -2.90873 19.6626
rtibia 22.2643
rfoot -0.239601 -15.9524
rtoes 14.7418
lfemur -10.2954 -4.29642 -15.3877
ltibia 47.3788
lfoot -2.87459 0.549788
ltoes -19.4315
654
root -34.3686 17.8508 2.54996 383.54 -85.3607 -377.255
lowerback 1.78737 -1.18224 3.13692
upperback 1.38809 -1.66524 4.96694
thorax 0.486601 -0.883373 3.37342
lowerneck -18.8018 -0.268013 -3.88114
upperneck 13.7628 0.438212 1.29388
head 7.29508 0.12168 1.10505
rclavicle -7.7526e-015 5.24792e-014
rhumerus -53.5075 -44.4307 -43.3864
rradius 47.1149
rwrist -32.434
rhand -18.6717 -62.7074
rfingers 7.12502
rthumb 7.62208 -627.45
lclavicle -7.7526e-015 5.24792e-014
lhumerus -28.4022 3.15112 88.5248
lradius 50.9544
lwrist -9.64271
lhand -12.9074 33.4301
lfingers 7.12502
lthumb 13.1825 62.9933
rfemur -26.1495 -2.74268 20.1281
rtibia 22.2169
rfoot -0.377965 -15.8389
rtoes 15.0833
lfemur -10.8028 -4.09307 -14.9539
ltibia 48.2819
lfoot -2.36523 0.844425
ltoes -19.0879
655
root -34.5195 17.8666 2.51672 386.707 -85.3795 -380.575
lowerback 1.72627 -0.99965 3.32268
upperback 1.29585 -1.41955 5.0107
thorax 0.414096 -0.760293 3.31117
lowerneck -18.8923 -0.357211 -3.974
upperneck 14.0807 0.364623 1.18557
head 7.41765 0.0664991 1.07783
rclavicle -1.82882e-014 1.43125e-014
rhumerus -51.6907 -45.0685 -45.2969
rradius 45.3664
rwrist -31.9192
rhand -18.0751 -62.3418
rfingers 7.12502
rthumb 8.19787 -627.837
lclavicle -1.82882e-014 1.43125e-014
lhumerus -28.1478 3.97149 88.2546
lradius 48.9626
lwrist -10.6724
lhand -12.8977 33.2685
lfingers 7.12502
lthumb 13.1918 62.8311
rfemur -25.4163 -2.55521 20.5922
rtibia 22.1294
rfoot -0.537325 -15.7302
rtoes 15.3981
lfemur -11.3439 -3.87556 -14.526
ltibia 49.1515
lfoot -1.91882 1.15768
ltoes -18.7273
656
root -34.6683 17.8825 2.48442 389.999 -85.4017 -384.015
lowerback 1.6719 -0.815052 3.51372
upperback 1.20419 -1.17086 5.05224
thorax 0.339371 -0.635991 3.24374
lowerneck -18.9798 -0.440828 -4.05765
upperneck 14.4031 0.297212 1.0739
head 7.54145 0.0138701 1.04838
rclavicle -4.77083e-015 5.56597e-014
rhumerus -49.6124 -45.5436 -47.5167
rradius 43.7701
rwrist -31.5036
rhand -17.4998 -61.9366
rfingers 7.12502
rthumb 8.75308 -628.265
lclavicle -4.77083e-015 5.56597e-014
lhumerus -27.908 4.7939 87.9844
lradius 47.0088
lwrist -11.7504
lhand -12.8453 33.0866
lfingers 7.12502
lthumb 13.2423 62.6459
rfemur -24.6717 -2.34998 21.0525
rtibia 22.0038
rfoot -0.717639 -15.6263
rtoes 15.703
lfemur -11.9129 -3.64644 -14.1072
ltibia 49.979
lfoot -1.53686 1.48867
ltoes -18.3784
657
root -34.8148 17.8984 2.45316 393.395 -85.4236 -387.554
lowerback 1.62216 -0.629741 3.70935
upperback 1.11351 -0.921033 5.09119
thorax 0.264209 -0.511401 3.17109
lowerneck -19.0646 -0.517971 -4.13123
upperneck 14.7291 0.237008 0.958608
head 7.66618 -0.0356743 1.0166
rclavicle -4.77083e-015 -5.08889e-014
rhumerus -47.2683 -45.8037 -50.0579
rradius 42.3438
rwrist -31.2192
rhand -16.9598 -61.51
rfingers 7.12502
rthumb 9.27416 -628.714
lclavicle -4.77083e-015 -5.08889e-014
lhumerus -27.685 5.61714 87.7131
lradius 45.099
lwrist -12.8704
lhand -12.7564 32.878
lfingers 7.12502
lthumb 13.328 62.4318
rfemur -23.918 -2.13572 21.508
rtibia 21.8457
rfoot -0.921778 -15.5233
rtoes 15.9829
lfemur -12.5066 -3.40962 -13.7007
ltibia 50.757
lfoot -1.22216 1.83527
ltoes -18.0432
658
root -34.9592 17.9143 2.42297 396.925 -85.4448 -391.221
lowerback 1.57701 -0.443455 3.90982
upperback 1.02366 -0.669687 5.12775
thorax 0.188552 -0.386356 3.09327
lowerneck -19.1479 -0.589421 -4.19612
upperneck 15.0579 0.182696 0.843325
head 7.7919 -0.0824445 0.983768
rclavicle -5.36719e-015 -7.15625e-014
rhumerus -44.6735 -45.792 -52.9121
rradius 41.104
rwrist -31.0872
rhand -16.4572 -61.0709
rfingers 7.12502
rthumb 9.75903 -629.175
lclavicle -5.36719e-015 -7.15625e-014
lhumerus -27.4832 6.44069 87.4391
lradius 43.2412
lwrist -14.0285
lhand -12.6477 32.6318
lfingers 7.12502
lthumb 13.4328 62.1787
rfemur -23.1578 -1.91206 21.9605
rtibia 21.661
rfoot -1.15507 -15.4139
rtoes 16.2332
lfemur -13.121 -3.16291 -13.3056
ltibia 51.4782
lfoot -0.974586 2.19668
ltoes -17.717
659
root -35.1017 17.9299 2.39388 400.55 -85.4622 -394.978
lowerback 1.53704 -0.257705 4.11352
upperback 0.933403 -0.418651 5.16124
thorax 0.110932 -0.261781 3.0105
lowerneck -19.2276 -0.655495 -4.25367
upperneck 15.3897 0.133659 0.730179
head 7.91825 -0.126578 0.950761
rclavicle 8.34896e-015 1.27222e-014
rhumerus -41.8682 -45.4739 -56.0293
rradius 40.0539
rwrist -31.1069
rhand -15.9918 -60.6233
rfingers 7.12502
rthumb 10.208 -629.644
lclavicle 8.34896e-015 1.27222e-014
lhumerus -27.3076 7.26166 87.1612
lradius 41.4419
lwrist -15.2184
lhand -12.5024 32.3663
lfingers 7.12502
lthumb 13.5728 61.9039
rfemur -22.3923 -1.68205 22.4063
rtibia 21.4526
rfoot -1.4088 -15.2984
rtoes 16.4646
lfemur -13.7517 -2.91002 -12.9249
ltibia 52.1355
lfoot -0.794297 2.57171
ltoes -17.4061
660
root -35.2421 17.9454 2.36583 404.25 -85.4729 -398.803
lowerback 1.49895 -0.0732792 4.31783
upperback 0.844218 -0.169346 5.19227
thorax 0.0348354 -0.138382 2.92486
lowerneck -19.3058 -0.716265 -4.30074
upperneck 15.7203 0.0897517 0.615228
head 8.04421 -0.168263 0.915734
rclavicle 2.38542e-015 -3.81667e-014
rhumerus -38.8994 -44.8175 -59.348
rradius 39.1939
rwrist -31.2768
rhand -15.5654 -60.1671
rfingers 7.12502
rthumb 10.6194 -449.879
lclavicle 2.38542e-015 -3.81667e-014
lhumerus -27.1591 8.07813 86.8788
lradius 39.7074
lwrist -16.4342
lhand -12.3279 32.0707
lfingers 7.12502
lthumb 13.741 61.597
rfemur -21.6246 -1.44442 22.8442
rtibia 21.2221
rfoot -1.67427 -15.1857
rtoes 16.6805
lfemur -14.397 -2.65278 -12.5582
ltibia 52.7224
lfoot -0.680234 2.95784
ltoes -17.1076
661
root -35.3807 17.9604 2.33892 407.994 -85.4761 -402.665
lowerback 1.46468 0.109398 4.52258
upperback 0.755082 0.0779517 5.21971
thorax -0.0418571 -0.0162947 2.83529
lowerneck -19.3817 -0.771632 -4.33804
upperneck 16.0504 0.0506401 0.501494
head 8.16997 -0.207362 0.879789
rclavicle 3.57812e-015 1.43125e-014
rhumerus -35.8453 -43.7804 -62.7909
rradius 38.5473
rwrist -31.6001
rhand -15.1724 -59.7043
rfingers 7.12502
rthumb 10.9984 -449.396
lclavicle 3.57812e-015 1.43125e-014
lhumerus -27.0428 8.88733 86.5913
lradius 38.0444
lwrist -17.6689
lhand -12.1245 31.75
lfingers 7.12502
lthumb 13.937 61.2629
rfemur -20.8547 -1.20166 23.2713
rtibia 20.9702
rfoot -1.9514 -15.0745
rtoes 16.8602
lfemur -15.0518 -2.39377 -12.2086
ltibia 53.2326
lfoot -0.630334 3.35377
ltoes -16.8229
662
root -35.5175 17.975 2.31305 411.746 -85.469 -406.528
lowerback 1.43373 0.288606 4.72632
upperback 0.664806 0.321024 5.24363
thorax -0.120059 0.103356 2.7427
lowerneck -19.4538 -0.821828 -4.36558
upperneck 16.3792 0.0155314 0.390615
head 8.29488 -0.244017 0.843394
rclavicle -4.37326e-015 -1.43125e-014
rhumerus -32.7921 -42.3359 -66.2688
rradius 38.1377
rwrist -32.0748
rhand -14.8239 -59.2401
rfingers 7.12502
rthumb 11.3346 -448.914
lclavicle -4.37326e-015 -1.43125e-014
lhumerus -26.9627 9.68493 86.2973
lradius 36.46
lwrist -18.9087
lhand -11.8846 31.4166
lfingers 7.12502
lthumb 14.1682 60.9135
rfemur -20.0851 -0.953259 23.687
rtibia 20.6971
rfoot -2.24003 -14.9675
rtoes 16.9956
lfemur -15.7144 -2.13614 -11.8749
ltibia 53.6607
lfoot -0.641238 3.75636
ltoes -16.5471
